<?xml version="1.0" encoding="UTF-8" standalone="no"?>
<svg
   xmlns:dc="http://purl.org/dc/elements/1.1/"
   xmlns:cc="http://creativecommons.org/ns#"
   xmlns:rdf="http://www.w3.org/1999/02/22-rdf-syntax-ns#"
   xmlns:svg="http://www.w3.org/2000/svg"
   xmlns="http://www.w3.org/2000/svg"
   viewBox="0 0 1066.6667 1066.6667"
   height="1066.6667"
   width="1066.6667"
   xml:space="preserve"
   id="svg2"
   version="1.1"><metadata
     id="metadata8"><rdf:RDF><cc:Work
         rdf:about=""><dc:format>image/svg+xml</dc:format><dc:type
           rdf:resource="http://purl.org/dc/dcmitype/StillImage" /></cc:Work></rdf:RDF></metadata><defs
     id="defs6" /><g
     transform="matrix(1.3333333,0,0,-1.3333333,0,1066.6667)"
     id="g10"><g
       transform="scale(0.1)"
       id="g12"><path
         id="path276"
         style="fill:#37c9dc;fill-opacity:1;fill-rule:nonzero;stroke:none"
         d="m 5814.69,6106.47 c -3.44,31.42 -33.65,92.58 -61.23,82.07 l -46.64,-17.75 c -27.58,-10.49 -39.86,-42.62 -29.58,-72.53 34.34,-100.06 91.8,-319.94 91.8,-319.94 13.62,-35.74 32.63,-116.8 78.42,-137.42 l -19.61,59.22 c 33.37,12.71 108.9,-39.03 102.87,9.41 -23.31,187.15 -100.14,252.14 -116.03,396.94" /><path
         id="path278"
         style="fill:#37c9dc;fill-opacity:1;fill-rule:nonzero;stroke:none"
         d="m 5704.59,6113.78 c -9.69,-2.08 -19.36,-4.16 -29.1,-9.48 l -30.18,57.43 c -3.86,7.92 -0.56,17.45 7.35,21.32 7.93,3.87 17.46,0.58 21.31,-7.34 l 30.62,-61.93" /><path
         id="path280"
         style="fill:#37c9dc;fill-opacity:1;fill-rule:nonzero;stroke:none"
         d="m 5736.86,6121.52 c -9.43,-5.01 -18.75,-10.22 -27.91,-15.69 l -36.48,80.72 c -3.58,8.04 0.03,17.48 8.08,21.06 8.06,3.58 17.49,-0.05 21.05,-8.09 l 35.26,-78" /><path
         id="path282"
         style="fill:#37c9dc;fill-opacity:1;fill-rule:nonzero;stroke:none"
         d="m 5769.55,6137.5 c -9.73,-4.35 -19.3,-9 -28.73,-13.9 l -38.46,85.11 c -3.57,8.05 0.04,17.48 8.1,21.05 8.04,3.59 17.47,-0.04 21.04,-8.07 l 38.05,-84.19" /><path
         id="path284"
         style="fill:#37c9dc;fill-opacity:1;fill-rule:nonzero;stroke:none"
         d="m 5803.13,6151.2 c -10.02,-3.66 -19.88,-7.7 -29.59,-11.96 l -38.31,84.76 c -3.58,8.05 0.03,17.47 8.09,21.07 8.05,3.58 17.47,-0.05 21.06,-8.09 l 38.75,-85.78" /><path
         id="path286"
         style="fill:#37c9dc;fill-opacity:1;fill-rule:nonzero;stroke:none"
         d="m 5820.49,6191.31 c 0.58,8.81 -6.04,16.39 -14.83,17.01 v 0 c -8.78,0.6 -16.4,-6.03 -17.01,-14.83 l -5.79,-84.86 c -0.59,-8.78 6.04,-16.39 14.84,-17 v 0 c 8.76,-0.59 16.38,6.03 16.99,14.84 l 5.8,84.84" /><path
         id="path288"
         style="fill:#006876;fill-opacity:1;fill-rule:nonzero;stroke:none"
         d="m 6912.79,6453.46 -1387.05,-528.6 -69.43,182.17 1387.05,528.61 69.43,-182.18" /><path
         id="path290"
         style="fill:#006876;fill-opacity:1;fill-rule:nonzero;stroke:none"
         d="m 7107.58,6527.7 c -40.54,-15.45 -85.92,4.88 -101.35,45.42 l -13.51,35.4 c -15.43,40.53 4.9,85.91 45.42,101.35 l 206.36,78.64 c -70.66,76.7 -183.44,106.95 -286.82,67.55 -135.61,-51.68 -203.64,-203.49 -151.96,-339.08 51.68,-135.59 203.49,-203.63 339.08,-151.95 103.39,39.4 167.43,137.05 169.13,241.31 l -206.35,-78.64" /><path
         id="path292"
         style="fill:#006876;fill-opacity:1;fill-rule:nonzero;stroke:none"
         d="m 5362.21,6071.17 c 40.52,15.45 85.91,-4.89 101.34,-45.41 l 13.5,-35.41 c 15.45,-40.53 -4.88,-85.91 -45.41,-101.35 l -206.36,-78.64 c 70.67,-76.7 183.44,-106.96 286.83,-67.55 135.6,51.68 203.63,203.48 151.95,339.08 -51.68,135.6 -203.48,203.62 -339.08,151.94 -103.39,-39.39 -167.42,-137.05 -169.12,-241.31 l 206.35,78.65" /><path
         id="path294"
         style="fill:#37c9dc;fill-opacity:1;fill-rule:nonzero;stroke:none"
         d="m 6213.69,6450.56 c 0,-147.15 101.27,-266.42 226.2,-266.42 124.93,0 226.2,119.27 226.2,266.42 0,147.14 -101.27,266.42 -226.2,266.42 -124.93,0 -226.2,-119.28 -226.2,-266.42" /><path
         id="path296"
         style="fill:#37c9dc;fill-opacity:1;fill-rule:nonzero;stroke:none"
         d="m 6603.84,6420.13 c 0,-29.68 20.42,-53.72 45.61,-53.72 25.2,0 45.61,24.04 45.61,53.72 0,29.67 -20.41,53.72 -45.61,53.72 -25.19,0 -45.61,-24.05 -45.61,-53.72" /><path
         id="path298"
         style="fill:#37c9dc;fill-opacity:1;fill-rule:nonzero;stroke:none"
         d="m 6191.21,6420.13 c 0,-29.68 20.43,-53.72 45.63,-53.72 25.18,0 45.6,24.04 45.6,53.72 0,29.67 -20.42,53.72 -45.6,53.72 -25.2,0 -45.63,-24.05 -45.63,-53.72" /><path
         id="path300"
         style="fill:#006876;fill-opacity:1;fill-rule:nonzero;stroke:none"
         d="m 6439.89,6450.56 c -86.65,0 -171.85,1.06 -255.3,3.06 9.86,163.08 120.35,291.63 255.3,291.63 134.95,0 245.44,-128.55 255.31,-291.63 -83.45,-2 -168.66,-3.06 -255.31,-3.06" /><path
         id="path302"
         style="fill:#006876;fill-opacity:1;fill-rule:nonzero;stroke:none"
         d="m 6168.18,6450.56 h 543.422 v 46.5898 H 6168.18 Z" /><path
         id="path304"
         style="fill:#d1ac13;fill-opacity:1;fill-rule:nonzero;stroke:none"
         d="m 6602.7,6673.23 c 0,0 -1.29,-2.63 -3.56,-7.23 -2.33,-4.53 -5.27,-11.21 -8.87,-19.12 -3.57,-7.94 -7.52,-17.27 -11.52,-27.31 -3.91,-10.08 -7.93,-20.87 -11.27,-31.87 -1.66,-5.5 -3.55,-10.94 -4.82,-16.45 -1.37,-5.47 -2.99,-10.82 -3.95,-16.11 -1.11,-5.26 -2.32,-10.34 -2.99,-15.23 -0.71,-4.89 -1.77,-9.49 -2.09,-13.79 -0.41,-4.3 -0.93,-8.25 -1.4,-11.78 -0.18,-3.52 -0.34,-6.6 -0.46,-9.14 -0.28,-5.1 -0.56,-8.05 -0.56,-8.05 0,0 -0.51,2.87 -1.21,7.97 -0.31,2.56 -0.7,5.68 -1.13,9.24 -0.18,3.57 -0.37,7.64 -0.41,12.07 -0.27,4.45 0.21,9.23 0.56,14.31 0.23,5.09 0.93,10.41 1.86,15.88 1.55,11 4.57,22.49 7.97,33.8 3.63,11.25 7.89,22.28 12.61,32.29 4.67,10.01 9.58,19.08 14.23,26.58 9.24,15.06 17.01,23.94 17.01,23.94" /><path
         id="path306"
         style="fill:#d1ac13;fill-opacity:1;fill-rule:nonzero;stroke:none"
         d="m 6273.83,6673.23 c 0,0 7.76,-8.88 17,-23.94 4.65,-7.5 9.56,-16.57 14.24,-26.58 4.72,-10.01 8.97,-21.04 12.61,-32.29 3.39,-11.31 6.41,-22.8 7.95,-33.8 0.94,-5.47 1.65,-10.79 1.87,-15.88 0.35,-5.08 0.83,-9.86 0.57,-14.31 -0.04,-4.43 -0.24,-8.5 -0.41,-12.07 -0.43,-3.56 -0.82,-6.68 -1.14,-9.24 -0.7,-5.1 -1.21,-7.97 -1.21,-7.97 0,0 -0.28,2.95 -0.55,8.05 -0.13,2.54 -0.29,5.62 -0.46,9.14 -0.47,3.53 -1,7.48 -1.41,11.78 -0.31,4.3 -1.39,8.9 -2.09,13.79 -0.66,4.89 -1.87,9.97 -2.99,15.23 -0.96,5.29 -2.58,10.64 -3.95,16.11 -1.26,5.51 -3.16,10.95 -4.82,16.45 -3.34,11 -7.36,21.79 -11.27,31.87 -4,10.04 -7.95,19.37 -11.52,27.31 -3.59,7.91 -6.53,14.59 -8.87,19.12 -2.26,4.6 -3.55,7.23 -3.55,7.23" /><path
         id="path308"
         style="fill:#d1ac13;fill-opacity:1;fill-rule:nonzero;stroke:none"
         d="m 6678.69,6497.15 c 0,0 -7.46,-0.32 -20.53,-0.88 -13.05,-0.36 -31.71,-1.25 -54.1,-1.66 -22.38,-0.37 -48.49,-1.2 -76.48,-1.37 -27.99,-0.2 -57.83,-0.4 -87.69,-0.61 -29.85,0.21 -59.69,0.41 -87.68,0.6 -27.98,0.15 -54.1,1 -76.49,1.37 -22.38,0.4 -41.03,1.3 -54.1,1.67 -13.06,0.56 -20.52,0.88 -20.52,0.88 0,0 7.46,0.33 20.52,0.88 13.07,0.37 31.72,1.27 54.1,1.67 22.39,0.37 48.51,1.22 76.49,1.38 27.99,0.18 57.83,0.39 87.68,0.59 29.86,-0.2 59.7,-0.41 87.69,-0.6 27.99,-0.18 54.1,-1.01 76.48,-1.38 22.39,-0.41 41.05,-1.3 54.1,-1.66 13.07,-0.55 20.53,-0.88 20.53,-0.88" /><path
         id="path310"
         style="fill:#d1ac13;fill-opacity:1;fill-rule:nonzero;stroke:none"
         d="m 6479.47,6741.47 c 0,0 1.39,-14.81 2.58,-37.04 1.15,-22.22 1.91,-51.85 1.93,-81.48 -0.02,-29.63 -0.76,-59.26 -1.91,-81.48 -1.19,-22.23 -2.6,-37.04 -2.6,-37.04 0,0 -1.4,14.81 -2.59,37.04 -1.16,22.22 -1.9,51.85 -1.94,81.48 0.04,29.63 0.8,59.26 1.94,81.48 1.19,22.23 2.59,37.04 2.59,37.04" /><path
         id="path312"
         style="fill:#d1ac13;fill-opacity:1;fill-rule:nonzero;stroke:none"
         d="m 6405.08,6741.47 c 0,0 1.4,-14.81 2.6,-37.04 1.13,-22.22 1.89,-51.85 1.93,-81.48 -0.04,-29.63 -0.78,-59.26 -1.93,-81.48 -1.2,-22.23 -2.6,-37.04 -2.6,-37.04 0,0 -1.41,14.81 -2.6,37.04 -1.15,22.22 -1.89,51.85 -1.91,81.48 0.03,29.63 0.78,59.26 1.93,81.48 1.19,22.23 2.58,37.04 2.58,37.04" /><path
         id="path314"
         style="fill:#37c9dc;fill-opacity:1;fill-rule:nonzero;stroke:none"
         d="m 6772.87,5556.49 c 8.42,-37.29 7.66,-61.07 42.93,-53.12 l 59.61,13.48 c 35.27,7.96 50.43,28.27 48.61,81.94 -3.67,108.68 -105.49,500.74 -105.49,500.74 -8.42,37.29 -45.74,71.33 -83.24,71.33 l -85.84,-3.17 c -35.28,-7.96 -3.66,-82.08 4.77,-119.37 l 118.65,-491.83" /><path
         id="path316"
         style="fill:#37c9dc;fill-opacity:1;fill-rule:nonzero;stroke:none"
         d="m 6174.97,5426.47 c 2.68,-76.21 27.35,-105.02 55.19,-105.02 h 419.47 c 27.83,0 52.52,28.81 55.18,65.02 l 5.87,685.16 c 3.89,52.53 -20.87,96.06 -55.39,96.06 h -475.52 c -34.52,0 -59.27,-43.53 -55.39,-56.06 l 50.59,-685.16" /><path
         id="path318"
         style="fill:#37c9dc;fill-opacity:1;fill-rule:nonzero;stroke:none"
         d="m 6175.47,5163.7 c 0,-49.98 40.08,-90.49 89.53,-90.49 h 351.97 c 49.46,0 89.54,40.51 89.54,90.49 v 255.28 c 0,49.97 -40.08,90.48 -89.54,90.48 H 6265 c -49.45,0 -89.53,-40.51 -89.53,-90.48 V 5163.7" /><path
         id="path320"
         style="fill:#37c9dc;fill-opacity:1;fill-rule:nonzero;stroke:none"
         d="m 6707.81,4061.72 c 0.5,-44.24 -34.95,-80.49 -79.18,-80.98 l -40.25,-0.84 c -44.23,-0.49 -80.48,34.96 -80.98,79.2 l -48.04,1188.78 c -0.53,46.41 36.68,84.47 83.12,85 l 78.44,0.87 c 46.44,0.51 84.49,-36.7 85.01,-83.13 l 1.88,-1188.9" /><path
         id="path322"
         style="fill:#37c9dc;fill-opacity:1;fill-rule:nonzero;stroke:none"
         d="m 6577.48,4092.71 c 0,0 299.22,-79.29 305.94,-101.85 7.58,-25.45 -7.42,-44.59 -36.3,-44.59 h -225.95 c -3.08,11.09 -13.14,19.28 -25.22,19.28 -12.07,0 -22.13,-8.19 -25.22,-19.28 h -29.44 c -24.06,0 -37.03,32.79 -37.03,73.22 0,40.45 32.78,73.22 73.22,73.22" /><path
         id="path324"
         style="fill:#37c9dc;fill-opacity:1;fill-rule:nonzero;stroke:none"
         d="m 6173.74,4061.72 c -0.5,-44.24 34.95,-80.49 79.18,-80.98 l 40.25,-0.84 c 44.23,-0.49 80.48,34.96 80.98,79.2 l 48.06,1188.78 c 0.51,46.41 -36.69,84.47 -83.13,85 l -78.45,0.87 c -46.43,0.51 -84.48,-36.7 -85,-83.13 l -1.89,-1188.9" /><path
         id="path326"
         style="fill:#37c9dc;fill-opacity:1;fill-rule:nonzero;stroke:none"
         d="m 6305.76,4092.71 c 0,0 -299.22,-79.29 -305.92,-101.85 -7.57,-25.45 7.42,-44.59 36.29,-44.59 h 225.96 c 3.08,11.09 13.14,19.28 25.21,19.28 12.08,0 22.13,-8.19 25.22,-19.28 h 29.44 c 24.07,0 37.03,32.79 37.03,73.22 0,40.45 -32.78,73.22 -73.23,73.22" /><path
         id="path328"
         style="fill:#37c9dc;fill-opacity:1;fill-rule:nonzero;stroke:none"
         d="m 6738.03,5133.56 c -9.38,-30.2 4.65,-97.6 34.12,-98.98 l 49.84,-2.35 c 29.49,-1.4 53.57,23.17 56.09,54.69 8.44,105.45 47.66,420.47 47.66,420.47 1.8,38.18 8.22,86.83 -11.27,154.13 l -92.15,-79.11 c -35.65,1.68 -43.38,11.83 -49.45,-25.92 -37.73,-235.04 8.38,-283.83 -34.84,-422.93" /><path
         id="path330"
         style="fill:#37c9dc;fill-opacity:1;fill-rule:nonzero;stroke:none"
         d="m 6848.5,5090.88 c 9.03,-4.1 18.02,-8.18 29.04,-9.7 l -9.96,-64.1 c -1.61,-8.66 -9.94,-14.38 -18.6,-12.76 -8.67,1.62 -14.37,9.94 -12.75,18.6 l 12.27,67.96" /><path
         id="path332"
         style="fill:#37c9dc;fill-opacity:1;fill-rule:nonzero;stroke:none"
         d="m 6817.98,5103.9 c 10.56,-1.6 21.14,-2.96 31.77,-4.02 l -18.77,-86.57 c -1.92,-8.6 -10.43,-14.01 -19.03,-12.11 -8.6,1.93 -14.02,10.45 -12.11,19.04 l 18.14,83.66" /><path
         id="path334"
         style="fill:#37c9dc;fill-opacity:1;fill-rule:nonzero;stroke:none"
         d="m 6782.2,5110.51 c 10.4,-2.28 20.85,-4.26 31.34,-5.93 l -19.77,-91.27 c -1.91,-8.6 -10.44,-14.01 -19.04,-12.11 -8.6,1.93 -14.02,10.45 -12.09,19.04 l 19.56,90.27" /><path
         id="path336"
         style="fill:#37c9dc;fill-opacity:1;fill-rule:nonzero;stroke:none"
         d="m 6747.05,5119.5 c 10.24,-3.03 20.55,-5.65 30.9,-8.01 l -19.69,-90.91 c -1.91,-8.6 -10.45,-14.01 -19.04,-12.1 -8.59,1.92 -14.02,10.43 -12.1,19.02 l 19.93,92" /><path
         id="path338"
         style="fill:#37c9dc;fill-opacity:1;fill-rule:nonzero;stroke:none"
         d="m 6695.41,5097.49 c -5.72,-6.7 -4.91,-16.78 1.8,-22.49 v 0 c 6.7,-5.72 16.75,-4.92 22.48,1.79 l 55.17,64.72 c 5.73,6.7 4.93,16.77 -1.78,22.49 v 0 c -6.7,5.7 -16.77,4.91 -22.49,-1.79 l -55.18,-64.72" /><path
         id="path340"
         style="fill:#37c9dc;fill-opacity:1;fill-rule:nonzero;stroke:none"
         d="m 5963.54,5686.72 c 63.69,109.27 254.79,337.1 254.79,337.1 18.76,33.3 70.32,95.24 38.82,112.99 l -19.12,30.44 c -76.62,7.75 -124.12,5.78 -150,-45.06 0,0 -222.46,-248.52 -257.15,-351.56 -17.15,-50.91 -30.87,-104.75 16.58,-129.73 27.62,-14.53 73.83,-26.63 116.08,45.82" /><path
         id="path342"
         style="fill:#006876;fill-opacity:1;fill-rule:nonzero;stroke:none"
         d="m 6143.97,6178.69 h 111.4 c 39.01,0 70.63,-44.78 70.63,-100 v -654.53 c 0,-55.23 -31.62,-100 -70.63,-100 h -40.76 c -39.01,0 -70.64,4.77 -70.64,60 v 794.53" /><path
         id="path344"
         style="fill:#37c9dc;fill-opacity:1;fill-rule:nonzero;stroke:none"
         d="m 6166.56,5532.2 h 136.66 v 45.1523 h -136.66 z" /><path
         id="path346"
         style="fill:#006876;fill-opacity:1;fill-rule:nonzero;stroke:none"
         d="m 6717.5,6178.69 h -110.78 c -38.8,0 -70.26,-44.78 -70.26,-100 v -654.53 c 0,-55.23 31.46,-100 70.26,-100 h 40.54 c 38.79,0 70.24,4.77 70.24,60 v 794.53" /><path
         id="path348"
         style="fill:#37c9dc;fill-opacity:1;fill-rule:nonzero;stroke:none"
         d="m 6559.12,5532.2 h 135.918 v 45.1523 H 6559.12 Z" /><path
         id="path350"
         style="fill:#37c9dc;fill-opacity:1;fill-rule:nonzero;stroke:none"
         d="m 5782.2,6199.01 c 3.44,-7.21 -0.19,-16.12 -8.12,-19.92 v 0 c -7.94,-3.8 -17.17,-1.04 -20.6,6.18 l -17.17,35.54 c -3.45,7.2 0.18,16.13 8.12,19.93 v 0 c 7.93,3.79 17.15,1.03 20.61,-6.18 l 17.16,-35.55" /><path
         id="path352"
         style="fill:#37c9dc;fill-opacity:1;fill-rule:nonzero;stroke:none"
         d="m 5747.46,6182.55 c 2.99,-7.4 -1.18,-16.08 -9.33,-19.38 v 0 c -8.17,-3.3 -17.19,0.03 -20.2,7.44 l -14.92,36.53 c -3,7.42 1.17,16.1 9.33,19.4 v 0 c 8.15,3.29 17.19,-0.03 20.18,-7.44 l 14.94,-36.55" /><path
         id="path354"
         style="fill:#37c9dc;fill-opacity:1;fill-rule:nonzero;stroke:none"
         d="m 5715.62,6166.02 c 2.76,-6.85 -1.09,-14.86 -8.63,-17.92 v 0 c -7.54,-3.05 -15.89,0.03 -18.66,6.88 l -13.8,33.77 c -2.77,6.85 1.1,14.87 8.63,17.92 v 0 c 7.54,3.04 15.88,-0.02 18.66,-6.88 l 13.8,-33.77" /><path
         id="path356"
         style="fill:#37c9dc;fill-opacity:1;fill-rule:nonzero;stroke:none"
         d="m 5683.97,6154.72 c 2.65,-6.57 -1.04,-14.27 -8.28,-17.2 v 0 c -7.23,-2.93 -15.24,0.03 -17.9,6.61 l -13.24,32.4 c -2.66,6.57 1.06,14.27 8.28,17.2 v 0 c 7.23,2.92 15.24,-0.03 17.9,-6.61 l 13.24,-32.4" /></g></g></svg>