<svg width="640" height="480" xmlns="http://www.w3.org/2000/svg">
 <metadata id="metadata8">image/svg+xml</metadata>

 <g>
  <title>background</title>
  <rect fill="none" id="canvas_background" height="482" width="642" y="-1" x="-1"/>
 </g>
 <g>
  <title>Layer 1</title>
  <g id="g10" transform="matrix(1.3333333,0,0,-1.3333333,0,1066.6667) ">
   <g id="g12" transform="translate(-183,67.5) scale(0.10000000149011612) ">
    <path fill="#37c9dc" fill-rule="nonzero" d="m3635.956917,4420.745157c-182.37,0 -330.2,147.83 -330.2,330.19c0,182.34 147.83,330.18 330.2,330.18c182.34,0 330.17,-147.84 330.17,-330.18c0,-182.36 -147.83,-330.19 -330.17,-330.19zm0,800.07c-259.51,0 -469.89,-210.37 -469.89,-469.88c0,-259.48 210.38,-469.879 469.89,-469.879c259.49,0 469.87,210.399 469.87,469.879c0,259.51 -210.38,469.88 -469.87,469.88" id="path450"/>
    <path fill="none" stroke="#37c9dc" stroke-width="228.587997" stroke-miterlimit="10" stroke-dasharray="131.18, 196.77" stroke-dashoffset="0" d="m4105.826917,4750.935157c0,-259.48 -210.38,-469.879 -469.87,-469.879c-259.51,0 -469.89,210.399 -469.89,469.879c0,259.51 210.38,469.88 469.89,469.88c259.49,0 469.87,-210.37 469.87,-469.88z" id="path452"/>
    <path fill="#37c9dc" fill-rule="nonzero" d="m4601.706917,4386.767157c-115.48,0 -209.09,93.608 -209.09,209.078c0,115.47 93.61,209.09 209.09,209.09c115.47,0 209.08,-93.62 209.08,-209.09c0,-115.47 -93.61,-209.078 -209.08,-209.078zm0,506.628c-164.34,0 -297.55,-133.21 -297.55,-297.55c0,-164.32 133.21,-297.539 297.55,-297.539c164.32,0 297.54,133.219 297.54,297.539c0,164.34 -133.22,297.55 -297.54,297.55" id="path454"/>
    <path fill="none" stroke="#37c9dc" stroke-width="144.75" stroke-miterlimit="10" stroke-dasharray="83.068, 124.602" stroke-dashoffset="0" d="m4899.246917,4595.845157c0,-164.32 -133.22,-297.539 -297.54,-297.539c-164.34,0 -297.55,133.219 -297.55,297.539c0,164.34 133.21,297.55 297.55,297.55c164.32,0 297.54,-133.21 297.54,-297.55z" id="path456"/>
    <path fill="#FFFFFF" fill-rule="nonzero" d="m4305.276917,6649.845157c0,-147.14 -101.27,-266.42 -226.21,-266.42c-124.92,0 -226.19,119.28 -226.19,266.42c0,147.15 101.27,266.43 226.19,266.43c124.94,0 226.21,-119.28 226.21,-266.43" id="path458"/>
    <path fill="#FFFFFF" fill-rule="nonzero" d="m3915.126917,6619.415157c0,-29.66 -20.41,-53.71 -45.61,-53.71c-25.19,0 -45.6,24.05 -45.6,53.71c0,29.67 20.41,53.73 45.6,53.73c25.2,0 45.61,-24.06 45.61,-53.73" id="path460"/>
    <path fill="#FFFFFF" fill-rule="nonzero" d="m4327.756917,6619.415157c0,-29.66 -20.43,-53.71 -45.62,-53.71c-25.2,0 -45.61,24.05 -45.61,53.71c0,29.67 20.41,53.73 45.61,53.73c25.19,0 45.62,-24.06 45.62,-53.73" id="path462"/>
    <path fill="#37c9dc" fill-rule="nonzero" d="m4079.066917,6649.845157c86.66,0 171.86,1.06 255.32,3.07c-9.87,163.09 -120.36,291.62 -255.32,291.62c-134.94,0 -245.43,-128.53 -255.29,-291.62c83.44,-2.01 168.65,-3.07 255.29,-3.07" id="path464"/>
    <path fill="#37c9dc" fill-rule="nonzero" d="m3807.366917,6649.845157l543.422,0l0,46.6094l-543.422,0l0,-46.6094z" id="path466"/>
    <path fill="#d1ac13" fill-rule="nonzero" d="m3916.276917,6872.525157c0,0 7.76,-8.88 17,-23.94c4.65,-7.5 9.56,-16.57 14.24,-26.58c4.72,-10.01 8.98,-21.03 12.61,-32.28c3.41,-11.32 6.41,-22.81 7.97,-33.81c0.93,-5.47 1.63,-10.78 1.86,-15.88c0.34,-5.08 0.82,-9.85 0.57,-14.31c-0.05,-4.43 -0.24,-8.49 -0.41,-12.07c-0.44,-3.56 -0.83,-6.68 -1.14,-9.24c-0.7,-5.09 -1.22,-7.96 -1.22,-7.96c0,0 -0.28,2.94 -0.54,8.04c-0.13,2.54 -0.29,5.62 -0.47,9.14c-0.47,3.53 -0.99,7.48 -1.41,11.78c-0.3,4.31 -1.37,8.91 -2.08,13.79c-0.66,4.89 -1.87,9.97 -3,15.23c-0.95,5.3 -2.57,10.64 -3.94,16.12c-1.26,5.5 -3.16,10.94 -4.82,16.44c-3.34,11 -7.37,21.79 -11.28,31.87c-4,10.05 -7.95,19.37 -11.51,27.31c-3.59,7.91 -6.54,14.59 -8.88,19.12c-2.26,4.6 -3.55,7.23 -3.55,7.23" id="path468"/>
    <path fill="#d1ac13" fill-rule="nonzero" d="m4245.146917,6872.525157c0,0 -1.29,-2.63 -3.56,-7.23c-2.33,-4.53 -5.28,-11.21 -8.87,-19.12c-3.56,-7.94 -7.51,-17.26 -11.51,-27.31c-3.91,-10.08 -7.94,-20.87 -11.29,-31.87c-1.65,-5.5 -3.55,-10.94 -4.81,-16.44c-1.37,-5.48 -2.99,-10.82 -3.95,-16.12c-1.12,-5.26 -2.33,-10.34 -3,-15.23c-0.7,-4.88 -1.77,-9.48 -2.08,-13.79c-0.42,-4.3 -0.93,-8.25 -1.4,-11.78c-0.19,-3.52 -0.34,-6.6 -0.47,-9.14c-0.26,-5.1 -0.55,-8.04 -0.55,-8.04c0,0 -0.51,2.87 -1.21,7.96c-0.31,2.56 -0.7,5.68 -1.14,9.24c-0.18,3.58 -0.36,7.64 -0.41,12.07c-0.25,4.46 0.22,9.23 0.57,14.31c0.23,5.1 0.92,10.41 1.86,15.88c1.55,11 4.56,22.49 7.97,33.81c3.62,11.25 7.89,22.27 12.61,32.28c4.67,10.01 9.59,19.08 14.24,26.58c9.23,15.06 17,23.94 17,23.94" id="path470"/>
    <path fill="#d1ac13" fill-rule="nonzero" d="m3840.276917,6696.455157c0,0 7.46,0.32 20.52,0.87c13.07,0.37 31.72,1.25 54.1,1.66c22.4,0.38 48.51,1.21 76.49,1.38c27.99,0.2 57.83,0.4 87.68,0.61c29.86,-0.21 59.7,-0.41 87.69,-0.6c27.98,-0.16 54.09,-1 76.48,-1.38c22.39,-0.4 41.04,-1.29 54.1,-1.67c13.06,-0.55 20.52,-0.87 20.52,-0.87c0,0 -7.46,-0.33 -20.52,-0.88c-13.06,-0.37 -31.71,-1.27 -54.1,-1.67c-22.39,-0.37 -48.5,-1.22 -76.48,-1.38c-27.99,-0.19 -57.83,-0.39 -87.69,-0.6c-29.85,0.21 -59.69,0.41 -87.68,0.61c-27.98,0.18 -54.09,1.01 -76.49,1.38c-22.38,0.41 -41.03,1.3 -54.1,1.66c-13.06,0.55 -20.52,0.88 -20.52,0.88" id="path472"/>
    <path fill="#d1ac13" fill-rule="nonzero" d="m4039.496917,6940.765157c0,0 1.4,-14.81 2.59,-37.04c1.14,-22.22 1.9,-51.85 1.93,-81.48c-0.03,-29.63 -0.77,-59.27 -1.92,-81.49c-1.19,-22.22 -2.6,-37.04 -2.6,-37.04c0,0 -1.4,14.82 -2.59,37.04c-1.16,22.22 -1.9,51.86 -1.93,81.49c0.03,29.63 0.79,59.26 1.93,81.48c1.2,22.23 2.59,37.04 2.59,37.04" id="path474"/>
    <path fill="#d1ac13" fill-rule="nonzero" d="m4113.896917,6940.765157c0,0 1.39,-14.81 2.59,-37.04c1.14,-22.22 1.9,-51.85 1.93,-81.48c-0.03,-29.63 -0.77,-59.27 -1.93,-81.49c-1.19,-22.22 -2.59,-37.04 -2.59,-37.04c0,0 -1.41,14.82 -2.6,37.04c-1.15,22.22 -1.89,51.86 -1.92,81.49c0.03,29.63 0.79,59.26 1.93,81.48c1.19,22.23 2.59,37.04 2.59,37.04" id="path476"/>
    <path fill="#FFFFFF" fill-rule="nonzero" d="m3756.096917,5755.785157c-8.41,-37.28 -7.65,-61.07 -42.93,-53.12l-59.6,13.47c-35.28,7.97 -50.43,28.28 -48.62,81.96c3.67,108.67 105.49,500.72 105.49,500.72c8.42,37.3 45.74,71.35 83.24,71.35l85.84,-3.19c35.28,-7.95 3.65,-82.07 -4.76,-119.37l-118.66,-491.82" id="path478"/>
    <path fill="#FFFFFF" fill-rule="nonzero" d="m4343.986917,5625.765157c-2.67,-76.21 -27.34,-105.02 -55.17,-105.02l-419.47,0c-27.84,0 -52.52,28.81 -55.2,65.02l-5.86,685.16c-3.88,52.52 20.86,96.05 55.39,96.05l475.53,0c34.51,0 29.26,-43.53 25.39,-56.05l-20.61,-685.16" id="path480"/>
    <path fill="#FFFFFF" fill-rule="nonzero" d="m4343.506917,5362.995157c0,-49.98 -40.08,-90.49 -89.53,-90.49l-351.98,0c-49.45,0 -89.55,40.51 -89.55,90.49l0,255.27c0,49.98 40.1,90.49 89.55,90.49l351.98,0c49.45,0 89.53,-40.51 89.53,-90.49l0,-255.27" id="path482"/>
    <path fill="#FFFFFF" fill-rule="nonzero" d="m3811.156917,4261.005157c-0.5,-44.219 34.94,-80.469 79.18,-80.98l40.26,-0.821c44.22,-0.508 80.47,34.942 80.97,79.18l48.05,1188.791c0.53,46.4 -36.7,84.47 -83.13,85l-78.43,0.86c-46.45,0.52 -84.49,-36.7 -85.02,-83.13l-1.88,-1188.9" id="path484"/>
    <path fill="#FFFFFF" fill-rule="nonzero" d="m3941.486917,4292.017157c0,0 -299.21,-79.301 -305.93,-101.852c-7.58,-25.449 7.42,-44.59 36.29,-44.59l225.95,0c3.09,11.09 13.15,19.27 25.22,19.27c12.07,0 22.13,-8.18 25.21,-19.27l29.46,0c24.06,0 37.03,32.77 37.03,73.219c0,40.43 -32.8,73.223 -73.23,73.223" id="path486"/>
    <path fill="#FFFFFF" fill-rule="nonzero" d="m4345.226917,4261.005157c0.5,-44.219 -34.95,-80.469 -79.18,-80.98l-40.26,-0.821c-44.22,-0.508 -80.47,34.942 -80.97,79.18l-48.05,1188.791c-0.53,46.4 36.68,84.47 83.12,85l78.44,0.86c46.45,0.52 84.49,-36.7 85.02,-83.13l1.88,-1188.9" id="path488"/>
    <path fill="#FFFFFF" fill-rule="nonzero" d="m4213.206917,4292.017157c0,0 299.22,-79.301 305.92,-101.852c7.58,-25.449 -7.42,-44.59 -36.29,-44.59l-225.95,0c-3.09,11.09 -13.15,19.27 -25.22,19.27c-12.07,0 -22.13,-8.18 -25.21,-19.27l-29.46,0c-24.06,0 -37.03,32.77 -37.03,73.219c0,40.43 32.79,73.223 73.24,73.223" id="path490"/>
    <path fill="#FFFFFF" fill-rule="nonzero" d="m3790.946917,5332.855157c9.37,-30.19 -4.65,-97.6 -34.12,-98.98l-49.85,-2.35c-29.49,-1.4 -53.57,23.17 -56.09,54.69c-8.44,105.45 -47.66,420.47 -47.66,420.47c-1.79,38.18 -8.22,86.84 11.27,154.12l92.15,-79.1c35.65,1.68 43.38,11.84 49.45,-25.92c37.74,-235.04 -8.37,-283.83 34.85,-422.93" id="path492"/>
    <path fill="#FFFFFF" fill-rule="nonzero" d="m3680.476917,5290.185157c-9.04,-4.11 -18.03,-8.19 -29.04,-9.71l9.96,-64.1c1.6,-8.66 9.94,-14.38 18.59,-12.76c8.67,1.62 14.38,9.94 12.75,18.6l-12.26,67.97" id="path494"/>
    <path fill="#FFFFFF" fill-rule="nonzero" d="m3710.986917,5303.185157c-10.55,-1.6 -21.14,-2.95 -31.76,-4.02l18.77,-86.56c1.91,-8.6 10.43,-14.01 19.02,-12.11c8.6,1.93 14.03,10.45 12.11,19.04l-18.14,83.65" id="path496"/>
    <path fill="#FFFFFF" fill-rule="nonzero" d="m3746.766917,5309.805157c-10.39,-2.28 -20.84,-4.25 -31.33,-5.93l19.77,-91.27c1.91,-8.6 10.43,-14.01 19.04,-12.11c8.59,1.93 14,10.45 12.09,19.04l-19.57,90.27" id="path498"/>
    <path fill="#FFFFFF" fill-rule="nonzero" d="m3781.916917,5318.795157c-10.25,-3.03 -20.54,-5.65 -30.89,-8.01l19.68,-90.92c1.92,-8.59 10.45,-14 19.05,-12.09c8.59,1.92 14.02,10.43 12.09,19.03l-19.93,91.99" id="path500"/>
    <path fill="#FFFFFF" fill-rule="nonzero" d="m3833.566917,5296.785157c5.72,-6.7 4.9,-16.78 -1.8,-22.5l0,0c-6.7,-5.71 -16.76,-4.91 -22.48,1.79l-55.18,64.73c-5.72,6.7 -4.92,16.76 1.78,22.48l0,0c6.7,5.7 16.78,4.92 22.5,-1.78l55.18,-64.72" id="path502"/>
    <path fill="#FFFFFF" fill-rule="nonzero" d="m4563.356917,5856.955157c-50.6,115.92 -121.72,404.67 -121.72,404.67c-15.81,34.82 -27.54,113.23 -102.43,105.35l-38.87,-9.84c-51.5,-57.26 -40.79,-91.72 -15.01,-142.63c0,0 69.3,-326.27 131.99,-415.08c30.97,-43.9 66.33,-86.74 114.5,-63.2c28.02,13.72 65.09,43.89 31.54,120.73" id="path504"/>
    <path fill="#37c9dc" fill-rule="nonzero" d="m4721.816917,5398.915157l-979.35,356.98l-49.06,-182.61l1010.42,-350.28c7.54,58.07 13.91,116.7 17.99,175.91" id="path506"/>
    <path fill="#37c9dc" fill-rule="nonzero" d="m3484.906917,5854.265157c45.95,-16.55 84.11,-43.45 73.22,-84.75l-19.47,-55.97c-10.81,-41.05 -56.44,-61.62 -102.27,-45.9l-199.15,61.93c19.06,-108.14 105.14,-207.52 222.98,-246.17c150.96,-49.51 299.81,19.07 336.27,153.24c36.85,135.51 -53.32,291.5 -205.31,348.57c-118.68,44.57 -239.23,15.5 -306.06,-64.59l199.79,-66.36" id="path508"/>
    <path fill="#37c9dc" fill-rule="nonzero" d="m5018.746917,5407.565157c76.22,-66.34 87.29,-180.99 26.09,-257.28c-61.2,-76.28 -173.27,-87.53 -251.71,-23.98c-80.05,64.82 -94.7,182.48 -31.23,261.59c63.45,79.1 179.1,87.34 256.85,19.67zm-262.41,-327.11c104.19,-83.38 252.04,-67.86 332.71,32.7c80.7,100.58 66.72,251.98 -33.53,340.25c-102.95,90.65 -257.08,80.41 -341.74,-25.11c-84.66,-105.55 -64.41,-262.22 42.56,-347.84" id="path510"/>
    <path fill="#FFFFFF" fill-rule="nonzero" d="m4316.626917,5441.575157c-15.74,-27.4 -27.42,-94.63 1.06,-102.39l48.14,-13.17c28.47,-7.8 57.31,10.91 66.67,41.15c31.24,101.06 114.48,312.55 114.48,312.55c10.07,36.86 42.53,113.57 17.69,157.2l-19.08,-59.39c-34.46,9.43 -64.93,95.76 -88.63,53.07c-91.53,-164.91 -67.78,-262.7 -140.33,-389.02" id="path512"/>
    <path fill="#FFFFFF" fill-rule="nonzero" d="m4401.246917,5370.755157c9.03,-4.06 18.09,-8.06 29.09,-9.5l-9.49,-64.18c-1.55,-8.68 -9.83,-14.43 -18.52,-12.9c-8.68,1.55 -14.42,9.85 -12.89,18.5l11.81,68.08" id="path514"/>
    <path fill="#FFFFFF" fill-rule="nonzero" d="m4370.636917,5383.545157c10.53,-1.53 21.15,-2.82 31.76,-3.79l-18.14,-86.72c-1.82,-8.61 -10.31,-14.09 -18.92,-12.24c-8.62,1.89 -14.12,10.36 -12.24,18.96l17.54,83.79" id="path516"/>
    <path fill="#FFFFFF" fill-rule="nonzero" d="m4334.806917,5389.925157c10.39,-2.25 20.85,-4.16 31.37,-5.74l-19.12,-91.4c-1.86,-8.64 -10.33,-14.1 -18.92,-12.24c-8.63,1.85 -14.13,10.32 -12.26,18.91l18.93,90.47" id="path518"/>
    <path fill="#FFFFFF" fill-rule="nonzero" d="m4299.606917,5398.655157c10.23,-2.99 20.56,-5.53 30.93,-7.81l-19.02,-91.05c-1.87,-8.61 -10.33,-14.1 -18.98,-12.24c-8.6,1.84 -14.07,10.34 -12.23,18.95l19.3,92.15" id="path520"/>
    <path fill="#FFFFFF" fill-rule="nonzero" d="m4261.916917,5376.465157c-5.67,-6.76 -4.79,-16.77 1.94,-22.48l0,0c6.75,-5.66 16.8,-4.8 22.49,1.96l54.7,65.13c5.68,6.74 4.81,16.8 -1.96,22.47l0,0c-6.74,5.66 -16.78,4.78 -22.46,-1.97l-54.71,-65.11" id="path522"/>
   </g>
  </g>
 </g>
</svg>